<svg width="110" height="32" viewBox="0 0 110 32" fill="none" xmlns="http://www.w3.org/2000/svg">
<path d="M32.3926 18.3926V19.6055C31.2793 20.6484 30.3301 21.4922 29.5449 22.1367C28.7715 22.7695 27.998 23.3438 27.2246 23.8594C26.4512 24.3633 25.8066 24.7207 25.291 24.9316C24.7871 25.1543 24.3535 25.2656 23.9902 25.2656C23.123 25.2656 22.4141 24.9434 21.8633 24.2988C21.3125 23.6543 21.0371 22.8223 21.0371 21.8027C21.0371 20.6309 21.2715 19.4707 21.7402 18.3223C22.2207 17.1738 22.9004 15.9902 23.7793 14.7715C24.6582 13.541 25.7598 12.1641 27.084 10.6406C28.0684 9.51562 28.5605 8.88281 28.5605 8.74219C28.5605 8.66016 28.5312 8.58984 28.4727 8.53125C28.4141 8.47266 28.3496 8.44336 28.2793 8.44336C28.0566 8.44336 27.3711 8.93555 26.2227 9.91992C25.0742 10.9043 23.5977 12.3516 21.793 14.2617C20 16.1719 18.0605 18.4453 15.9746 21.082C15.8574 21.2227 15.4824 21.7031 14.8496 22.5234C14.2285 23.332 13.7891 23.8594 13.5312 24.1055C13.2734 24.3516 13.0508 24.4746 12.8633 24.4746C12.5352 24.4746 12.248 24.1465 12.002 23.4902C11.7676 22.8223 11.6504 22.1133 11.6504 21.3633C11.6504 20.9062 11.7969 20.4141 12.0898 19.8867C12.3945 19.3594 13.0449 18.416 14.041 17.0566C15.0488 15.6855 15.8809 14.5312 16.5371 13.5938C17.1934 12.6562 17.9141 11.5195 18.6992 10.1836C19.25 9.25781 19.6543 8.51953 19.9121 7.96875C20.1816 7.41797 20.3164 6.93164 20.3164 6.50977C20.3164 6.14648 20.2109 5.96484 20 5.96484C19.5547 5.96484 18.7168 6.5625 17.4863 7.75781C16.2559 8.94141 14.7324 10.7051 12.916 13.0488C11.1113 15.3926 9.22461 18.1055 7.25586 21.1875C6.61133 22.2422 6.1543 22.9512 5.88477 23.3145C5.61523 23.6777 5.31641 23.8594 4.98828 23.8594C4.57812 23.8594 4.19141 23.4258 3.82812 22.5586C3.47656 21.6797 3.30078 20.9707 3.30078 20.4316C3.30078 20.2559 3.37109 20.0625 3.51172 19.8516C5.05859 17.7891 6.33008 16.0371 7.32617 14.5957C8.32227 13.1543 9.20703 11.7891 9.98047 10.5C10.7539 9.19922 11.3164 8.13281 11.668 7.30078C12.0195 6.45703 12.1953 5.79492 12.1953 5.31445C12.1953 4.81055 11.9668 4.55859 11.5098 4.55859C11.1348 4.55859 10.4961 4.79883 9.59375 5.2793C8.69141 5.75977 7.54883 6.41602 6.16602 7.24805C4.79492 8.08008 3.69336 8.71875 2.86133 9.16406C2.0293 9.59766 1.4082 9.81445 0.998047 9.81445C0.611328 9.81445 0.417969 9.59766 0.417969 9.16406C0.417969 8.91797 0.5 8.35547 0.664062 7.47656C0.828125 6.58594 0.998047 5.95898 1.17383 5.5957C1.41992 5.12695 2.04688 4.50586 3.05469 3.73242C4.07422 2.95898 4.63672 2.57227 4.74219 2.57227C4.83594 2.57227 4.88281 2.61328 4.88281 2.69531C4.88281 2.74219 4.83594 2.8125 4.74219 2.90625C4.26172 3.29297 3.9043 3.60938 3.66992 3.85547C3.43555 4.10156 3.28906 4.37109 3.23047 4.66406C5.375 3.375 7.29102 2.39648 8.97852 1.72852C10.6777 1.04883 11.8555 0.708984 12.5117 0.708984C12.8398 0.708984 13.1504 0.931641 13.4434 1.37695C13.7363 1.81055 13.9824 2.32031 14.1816 2.90625C14.3926 3.48047 14.498 3.84961 14.498 4.01367C14.498 4.61133 14.3457 5.32031 14.041 6.14062C13.7363 6.94922 13.3203 7.89258 12.793 8.9707C12.2773 10.0488 11.6328 11.3965 10.8594 13.0137C11.4688 12.2285 12.0488 11.502 12.5996 10.834C13.1504 10.166 13.6953 9.51562 14.2344 8.88281C14.7852 8.25 15.3418 7.61133 15.9043 6.9668C16.666 6.08789 17.5215 5.25 18.4707 4.45312C19.4199 3.64453 20.3047 2.98828 21.125 2.48438C21.957 1.96875 22.5195 1.71094 22.8125 1.71094C23.2227 1.71094 23.5859 1.93945 23.9023 2.39648C24.2305 2.8418 24.3945 3.32227 24.3945 3.83789C24.3945 4.17773 24.1719 4.82812 23.7266 5.78906C23.2812 6.75 22.6309 7.98047 21.7754 9.48047C20.9199 10.9805 19.7891 12.9141 18.3828 15.2812C19.7188 13.8633 21.1074 12.4043 22.5488 10.9043C23.9902 9.4043 25.0625 8.30859 25.7656 7.61719C26.4688 6.92578 27.0547 6.39844 27.5234 6.03516C28.168 5.54297 28.8125 5.01562 29.457 4.45312C30.1133 3.87891 30.6289 3.42773 31.0039 3.09961C31.3789 2.77148 31.7129 2.51953 32.0059 2.34375C32.2988 2.16797 32.5684 2.08008 32.8145 2.08008C33.1191 2.08008 33.5 2.43164 33.957 3.13477C34.4258 3.83789 34.6602 4.28906 34.6602 4.48828C34.6602 4.73438 34.5195 5.02734 34.2383 5.36719C33.9688 5.70703 33.4004 6.33984 32.5332 7.26562C30.9395 8.97656 29.5566 10.7051 28.3848 12.4512C27.2129 14.1855 26.3223 15.7734 25.7129 17.2148C25.1152 18.6445 24.8164 19.7754 24.8164 20.6074C24.8164 21.123 24.9102 21.498 25.0977 21.7324C25.2969 21.9668 25.6016 22.084 26.0117 22.084C26.3867 22.084 26.7324 22.0137 27.0488 21.873C27.377 21.7324 27.7344 21.5332 28.1211 21.2754C28.5195 21.0176 28.8945 20.7715 29.2461 20.5371C29.7383 20.2441 30.2188 19.9336 30.6875 19.6055C31.168 19.2656 31.5371 19.002 31.7949 18.8145C32.0645 18.6152 32.2637 18.4746 32.3926 18.3926ZM40.373 19.1484L37.2441 21.8027C35.7559 23.1035 34.7598 23.7539 34.2559 23.7539C33.7988 23.7539 33.3184 23.2324 32.8145 22.1895C32.3105 21.1348 32.0586 20.2148 32.0586 19.4297C32.0586 18.7617 32.1582 18.1992 32.3574 17.7422C32.5684 17.2734 32.9258 16.6699 33.4297 15.9316C34.1445 14.9355 34.8301 14.0918 35.4863 13.4004C36.1426 12.709 36.7227 12.1758 37.2266 11.8008C37.7305 11.4141 38.082 11.2207 38.2812 11.2207C38.5977 11.2207 38.9023 11.3848 39.1953 11.7129C39.5 12.041 39.6523 12.3809 39.6523 12.7324C39.6523 12.9551 39.4883 13.3125 39.1602 13.8047C38.8438 14.2969 38.334 14.9238 37.6309 15.6855C36.9395 16.4355 35.9727 17.3379 34.7305 18.3926L34.3965 19.3594C34.3027 19.5469 34.2559 19.7109 34.2559 19.8516C34.2559 20.168 34.4141 20.3262 34.7305 20.3262C35.0586 20.3262 35.8262 19.9102 37.0332 19.0781C38.252 18.2461 39.5703 17.127 40.9883 15.7207C41.5391 15.1699 41.9961 14.6836 42.3594 14.2617C42.7227 13.8398 43.0508 13.4473 43.3438 13.084C43.6367 12.709 43.877 12.4277 44.0645 12.2402C44.2637 12.0527 44.4395 11.9531 44.5918 11.9414C44.8848 11.9062 45.1133 12.0293 45.2773 12.3105C45.4414 12.5918 45.5234 13.0078 45.5234 13.5586C45.5234 13.875 45.3828 14.2734 45.1016 14.7539C44.8203 15.2227 44.293 16.0312 43.5195 17.1797C42.7461 18.3164 41.9727 19.5 41.1992 20.7305C40.4375 21.9492 39.6582 23.3262 38.8613 24.8613C38.8965 24.8262 39.2539 24.4746 39.9336 23.8066C40.625 23.1387 41.3516 22.4414 42.1133 21.7148C42.875 20.9883 43.502 20.4082 43.9941 19.9746C44.4863 19.5293 45.1016 19.0137 45.8398 18.4277V19.6055C44.2578 21.3047 42.8223 22.916 41.5332 24.4395C40.2559 25.9629 39.2656 27.1816 38.5625 28.0957C37.8711 29.0098 37.4668 29.543 37.3496 29.6953C37.0332 30.1055 36.7461 30.4863 36.4883 30.8379C36.2422 31.2012 36.0312 31.4766 35.8555 31.6641C35.6914 31.8633 35.5566 31.9629 35.4512 31.9629C35.2051 31.9629 34.9824 31.7168 34.7832 31.2246C34.5957 30.7441 34.502 30.3164 34.502 29.9414C34.502 29.6016 34.5664 29.3027 34.6953 29.0449C35.5391 27.1465 37.4316 23.8477 40.373 19.1484ZM57.1602 21.1523C57.1602 20.8828 57.2188 20.5078 57.3359 20.0273C57.4531 19.5352 57.6113 19.1543 57.8105 18.8848C58.3145 18.1699 58.7773 17.5137 59.1992 16.916C59.6211 16.3184 59.9961 15.8027 60.3242 15.3691C60.6523 14.9355 60.9805 14.5488 61.3086 14.209C63.3125 12.041 64.748 10.4238 65.6152 9.35742C66.4824 8.2793 66.916 7.5293 66.916 7.10742C66.916 6.82617 66.7871 6.60938 66.5293 6.45703C66.2715 6.29297 65.9316 6.21094 65.5098 6.21094C64.6426 6.21094 63.5527 6.52148 62.2402 7.14258C60.9277 7.75195 59.3926 8.54883 57.6348 9.5332C55.8887 10.5176 54.916 11.0098 54.7168 11.0098C54.4004 11.0098 54.2422 10.7812 54.2422 10.3242C54.2422 9.9375 54.3652 9.38672 54.6113 8.67188C54.7988 7.89844 54.9512 7.30078 55.0684 6.87891C55.1855 6.44531 55.3789 6.05859 55.6484 5.71875C55.9297 5.37891 56.3867 5.00977 57.0195 4.61133C57.6641 4.21289 58.6484 3.66797 59.9727 2.97656L60.1484 3.62695C61.25 3.18164 62.2871 2.8418 63.2598 2.60742C64.2441 2.37305 65.082 2.25586 65.7734 2.25586C67.1328 2.25586 68.0938 2.49023 68.6562 2.95898C69.2305 3.41602 69.5176 4.41797 69.5176 5.96484C69.5176 6.80859 69.3945 7.51172 69.1484 8.07422C68.9023 8.63672 68.4219 9.42188 67.707 10.4297C66.0781 12.7969 64.8535 14.4375 64.0332 15.3516C61.6543 18.0703 60.4648 19.6582 60.4648 20.1152C60.4648 20.373 60.6348 20.502 60.9746 20.502C61.2559 20.502 61.6543 20.3027 62.1699 19.9043C62.6855 19.5059 63.3066 18.9316 64.0332 18.1816C64.7598 17.4316 65.7676 16.3594 67.0566 14.9648C68.4277 13.4883 69.582 12.1875 70.5195 11.0625C71.4688 9.92578 72.248 8.95898 72.8574 8.16211C73.4668 7.35352 73.7891 6.91992 73.8242 6.86133C74.457 6.08789 75.1074 5.45508 75.7754 4.96289C76.4551 4.45898 76.8887 4.20703 77.0762 4.20703C77.2168 4.20703 77.3809 4.33594 77.5684 4.59375C77.7559 4.85156 77.9141 5.15625 78.043 5.50781C78.1836 5.85938 78.2539 6.12891 78.2539 6.31641C78.2539 6.375 78.1133 6.66211 77.832 7.17773C77.5508 7.68164 77.2461 8.20898 76.918 8.75977C76.5898 9.29883 76.0625 10.1309 75.3359 11.2559C73.7422 13.7285 72.5234 15.8086 71.6797 17.4961C70.8359 19.1719 70.4141 20.2734 70.4141 20.8008C70.4141 20.9883 70.4785 21.1641 70.6074 21.3281C70.748 21.4805 70.8887 21.5566 71.0293 21.5566C71.2168 21.5566 71.5566 21.4102 72.0488 21.1172C72.541 20.8125 73.0859 20.3789 73.6836 19.8164C74.4688 19.0664 75.1836 18.2871 75.8281 17.4785C76.4727 16.6699 77.1113 15.7676 77.7441 14.7715C78.377 13.7754 78.9395 12.832 79.4316 11.9414C79.9238 11.0508 80.4219 10.1133 80.9258 9.12891L80.627 8.23242C80.5801 8.0918 80.5566 7.91016 80.5566 7.6875C80.5566 7.51172 80.9023 6.94336 81.5938 5.98242C82.2852 5.00977 82.7422 4.52344 82.9648 4.52344C83.2109 4.52344 83.416 4.70508 83.5801 5.06836C83.7559 5.41992 83.8438 5.77734 83.8438 6.14062C83.8438 6.53906 83.6621 7.33594 83.2988 8.53125C82.9473 9.71484 82.3906 11.1504 81.6289 12.8379C80.8789 14.5254 79.9473 16.2422 78.834 17.9883C77.873 19.5117 76.8418 20.8184 75.7402 21.9082C74.6504 22.9863 73.666 23.7891 72.7871 24.3164C71.9082 24.8438 71.2578 25.1074 70.8359 25.1074C70.3555 25.1074 69.8516 24.8965 69.3242 24.4746C68.8906 24.0996 68.5801 23.7656 68.3926 23.4727C68.2168 23.168 68.0996 22.8398 68.041 22.4883C67.9824 22.1367 67.9531 21.7266 67.9531 21.2578C67.9531 20.2617 68.2285 19.0957 68.7793 17.7598C69.3301 16.4238 70.1504 14.7598 71.2402 12.7676C67.8301 16.916 65.1875 19.9336 63.3125 21.8203C61.4492 23.707 60.084 24.6504 59.2168 24.6504C58.6426 24.6504 58.1562 24.3105 57.7578 23.6309C57.3594 22.9395 57.1602 22.1133 57.1602 21.1523ZM83.5449 15.3164C85.3262 13.6992 87.0547 12.498 88.7305 11.7129C90.4062 10.9277 91.7012 10.5352 92.6152 10.5352C92.8613 10.5352 93.0898 10.6406 93.3008 10.8516C93.5117 11.0508 93.6758 11.2852 93.793 11.5547C93.9219 11.8242 93.9863 12.0234 93.9863 12.1523C93.9863 12.3633 93.9043 12.5215 93.7402 12.627C93.5762 12.7207 93.2891 12.8379 92.8789 12.9785C92.9609 13.166 93.0664 13.4062 93.1953 13.6992C93.3242 13.9922 93.4238 14.2324 93.4941 14.4199C93.5645 14.5957 93.5996 14.7539 93.5996 14.8945C93.5996 15.1758 93.3125 15.7031 92.7383 16.4766C92.1758 17.2383 91.7773 17.8008 91.543 18.1641C91.3203 18.5273 91.209 18.9727 91.209 19.5C91.209 20.3672 91.6074 20.8008 92.4043 20.8008C93.2246 20.8008 94.5078 20.0332 96.2539 18.498V19.5703C93.2891 22.8633 91.168 24.5098 89.8906 24.5098C89.4336 24.5098 89.1055 24.3574 88.9062 24.0527C88.7188 23.7598 88.625 23.3203 88.625 22.7344C88.625 21.8086 88.959 20.4668 89.627 18.709C87.916 20.6074 86.6445 21.9609 85.8125 22.7695C84.9805 23.5664 84.2949 23.9648 83.7559 23.9648C83.498 23.9648 83.1758 23.7422 82.7891 23.2969C82.4023 22.8516 82.0566 22.2773 81.752 21.5742C81.459 20.8594 81.3125 20.1211 81.3125 19.3594C81.3125 18.8086 81.3652 18.3516 81.4707 17.9883C81.5762 17.6133 81.7812 17.2324 82.0859 16.8457C82.3906 16.459 82.877 15.9492 83.5449 15.3164ZM91.9648 13.3828C88.918 14.7773 86.7441 15.9609 85.4434 16.9336C84.1543 17.9062 83.5098 18.9082 83.5098 19.9395C83.5098 20.3145 83.5742 20.625 83.7031 20.8711C83.832 21.1055 84.0078 21.2227 84.2305 21.2227C84.3594 21.2227 84.5879 21.1406 84.916 20.9766C86.1465 20.25 87.2715 19.3066 88.291 18.1465C89.3105 16.9746 90.5352 15.3867 91.9648 13.3828ZM104.217 19.1484L101.088 21.8027C99.5996 23.1035 98.6035 23.7539 98.0996 23.7539C97.6426 23.7539 97.1621 23.2324 96.6582 22.1895C96.1543 21.1348 95.9023 20.2148 95.9023 19.4297C95.9023 18.7617 96.002 18.1992 96.2012 17.7422C96.4121 17.2734 96.7695 16.6699 97.2734 15.9316C97.9883 14.9355 98.6738 14.0918 99.3301 13.4004C99.9863 12.709 100.566 12.1758 101.07 11.8008C101.574 11.4141 101.926 11.2207 102.125 11.2207C102.441 11.2207 102.746 11.3848 103.039 11.7129C103.344 12.041 103.496 12.3809 103.496 12.7324C103.496 12.9551 103.332 13.3125 103.004 13.8047C102.688 14.2969 102.178 14.9238 101.475 15.6855C100.783 16.4355 99.8164 17.3379 98.5742 18.3926L98.2402 19.3594C98.1465 19.5469 98.0996 19.7109 98.0996 19.8516C98.0996 20.168 98.2578 20.3262 98.5742 20.3262C98.9023 20.3262 99.6699 19.9102 100.877 19.0781C102.096 18.2461 103.414 17.127 104.832 15.7207C105.383 15.1699 105.84 14.6836 106.203 14.2617C106.566 13.8398 106.895 13.4473 107.188 13.084C107.48 12.709 107.721 12.4277 107.908 12.2402C108.107 12.0527 108.283 11.9531 108.436 11.9414C108.729 11.9062 108.957 12.0293 109.121 12.3105C109.285 12.5918 109.367 13.0078 109.367 13.5586C109.367 13.875 109.227 14.2734 108.945 14.7539C108.664 15.2227 108.137 16.0312 107.363 17.1797C106.59 18.3164 105.816 19.5 105.043 20.7305C104.281 21.9492 103.502 23.3262 102.705 24.8613C102.74 24.8262 103.098 24.4746 103.777 23.8066C104.469 23.1387 105.195 22.4414 105.957 21.7148C106.719 20.9883 107.346 20.4082 107.838 19.9746C108.33 19.5293 108.945 19.0137 109.684 18.4277V19.6055C108.102 21.3047 106.666 22.916 105.377 24.4395C104.1 25.9629 103.109 27.1816 102.406 28.0957C101.715 29.0098 101.311 29.543 101.193 29.6953C100.877 30.1055 100.59 30.4863 100.332 30.8379C100.086 31.2012 99.875 31.4766 99.6992 31.6641C99.5352 31.8633 99.4004 31.9629 99.2949 31.9629C99.0488 31.9629 98.8262 31.7168 98.627 31.2246C98.4395 30.7441 98.3457 30.3164 98.3457 29.9414C98.3457 29.6016 98.4102 29.3027 98.5391 29.0449C99.3828 27.1465 101.275 23.8477 104.217 19.1484Z" fill="#2D2D2D"/>
</svg>